<svg xmlns="http://www.w3.org/2000/svg" viewBox="0 0 121.6 126.67"><defs><style>.cls-1{isolation:isolate;}.cls-2{opacity:0.5;}.cls-3{fill:#ff914c;}.cls-4{mix-blend-mode:multiply;}.cls-5{fill:#ffd429;}.cls-6{fill:#ff8d25;}.cls-7{fill:#ff9f2f;}.cls-8{fill:#ff7200;}.cls-9{fill:#ff8b0a;}.cls-10{fill:#ffd486;}.cls-11{fill:#ffb661;}.cls-12{fill:#ff7d46;}</style></defs><g class="cls-1"><g id="Capa_2" data-name="Capa 2"><g id="Layer_1" data-name="Layer 1"><g class="cls-2"><circle class="cls-3" cx="71.92" cy="63.29" r="49.67" transform="translate(4.73 131.58) rotate(-86.81)"/><g class="cls-4"><path class="cls-5" d="M71.92,14.2A49.1,49.1,0,1,1,22.83,63.29,49.14,49.14,0,0,1,71.92,14.2m0-.58A49.68,49.68,0,1,0,121.6,63.29,49.67,49.67,0,0,0,71.92,13.62Z"/></g></g><g class="cls-2"><path class="cls-6" d="M104.89,61A52.35,52.35,0,1,1,52.54,8.61,52.34,52.34,0,0,1,104.89,61Z"/><g class="cls-4"><path class="cls-7" d="M52.54,9.19A51.77,51.77,0,1,1,.78,61,51.82,51.82,0,0,1,52.54,9.19m0-.58A52.35,52.35,0,1,0,104.89,61,52.35,52.35,0,0,0,52.54,8.61Z"/></g></g><g class="cls-2"><path class="cls-8" d="M95,12A12,12,0,1,1,83,0,12,12,0,0,1,95,12Z"/><g class="cls-4"><path class="cls-9" d="M83,.58A11.43,11.43,0,1,1,71.59,12,11.45,11.45,0,0,1,83,.58M83,0A12,12,0,1,0,95,12,12,12,0,0,0,83,0Z"/></g></g><g class="cls-2"><path class="cls-5" d="M26.11,109.39a12,12,0,1,1-12-12A12,12,0,0,1,26.11,109.39Z"/><g class="cls-4"><path class="cls-5" d="M14.1,98A11.43,11.43,0,1,1,2.67,109.39,11.45,11.45,0,0,1,14.1,98m0-.58a12,12,0,1,0,12,12,12,12,0,0,0-12-12Z"/></g></g><g class="cls-2"><path class="cls-5" d="M104.47,21.72a4.92,4.92,0,1,1-4.92-4.92A4.92,4.92,0,0,1,104.47,21.72Z"/><g class="cls-4"><path class="cls-5" d="M99.55,17.38a4.34,4.34,0,1,1-4.34,4.34,4.35,4.35,0,0,1,4.34-4.34m0-.58a4.92,4.92,0,1,0,4.92,4.92,4.92,4.92,0,0,0-4.92-4.92Z"/></g></g><g class="cls-2"><path class="cls-5" d="M37.57,120.32a4.92,4.92,0,1,1-4.92-4.92A4.92,4.92,0,0,1,37.57,120.32Z"/><g class="cls-4"><path class="cls-5" d="M32.65,116a4.34,4.34,0,1,1-4.33,4.33A4.33,4.33,0,0,1,32.65,116m0-.59a4.92,4.92,0,1,0,4.92,4.92,4.93,4.93,0,0,0-4.92-4.92Z"/></g></g><g class="cls-2"><path class="cls-5" d="M6.3,94a3.15,3.15,0,1,1-3.15-3.15A3.15,3.15,0,0,1,6.3,94Z"/><g class="cls-4"><path class="cls-5" d="M3.15,91.44A2.57,2.57,0,1,1,.58,94a2.58,2.58,0,0,1,2.57-2.57m0-.58A3.15,3.15,0,1,0,6.3,94a3.15,3.15,0,0,0-3.15-3.15Z"/></g></g><g class="cls-2"><path class="cls-10" d="M100.55,79.83A46.84,46.84,0,1,1,53.71,33,46.84,46.84,0,0,1,100.55,79.83Z"/><g class="cls-4"><path class="cls-5" d="M53.71,33.58A46.26,46.26,0,1,1,7.46,79.83,46.31,46.31,0,0,1,53.71,33.58m0-.58a46.84,46.84,0,1,0,46.84,46.83A46.83,46.83,0,0,0,53.71,33Z"/></g></g><g class="cls-2"><path class="cls-11" d="M111.91,86.52A35.14,35.14,0,1,1,76.77,51.38,35.15,35.15,0,0,1,111.91,86.52Z"/><g class="cls-4"><path class="cls-5" d="M76.77,52A34.56,34.56,0,1,1,42.21,86.52,34.59,34.59,0,0,1,76.77,52m0-.58a35.14,35.14,0,1,0,35.14,35.14A35.14,35.14,0,0,0,76.77,51.38Z"/></g></g><g class="cls-2"><ellipse class="cls-12" cx="52.88" cy="67.75" rx="40.32" ry="42.55"/><g class="cls-4"><path class="cls-5" d="M52.88,25.79c21.91,0,39.73,18.82,39.73,42s-17.82,42-39.73,42-39.74-18.82-39.74-42,17.83-42,39.74-42m0-.59c-22.27,0-40.32,19.05-40.32,42.55s18,42.55,40.32,42.55,40.31-19,40.31-42.55S75.14,25.2,52.88,25.2Z"/></g></g></g></g></g></svg>